<svg xmlns="http://www.w3.org/2000/svg" width="12" height="11" viewBox="0 0 12 11">
  <metadata><?xpacket begin="﻿" id="W5M0MpCehiHzreSzNTczkc9d"?>
<x:xmpmeta xmlns:x="adobe:ns:meta/" x:xmptk="Adobe XMP Core 5.6-c138 79.159824, 2016/09/14-01:09:01        ">
   <rdf:RDF xmlns:rdf="http://www.w3.org/1999/02/22-rdf-syntax-ns#">
      <rdf:Description rdf:about=""/>
   </rdf:RDF>
</x:xmpmeta>
                                                                                                    
                                                                                                    
                                                                                                    
                                                                                                    
                                                                                                    
                                                                                                    
                                                                                                    
                                                                                                    
                                                                                                    
                                                                                                    
                                                                                                    
                                                                                                    
                                                                                                    
                                                                                                    
                                                                                                    
                                                                                                    
                                                                                                    
                                                                                                    
                                                                                                    
                                                                                                    
                           
<?xpacket end="w"?></metadata>
<defs>
    <style>
      .cls-1 {
        fill: #afafaf;
        fill-rule: evenodd;
      }
    </style>
  </defs>
  <path id="foto_1" data-name="foto 1" class="cls-1" d="M671.531,2760.19a1.508,1.508,0,0,0-1.131-.5H669l-0.319-.9a1.27,1.27,0,0,0-.434-0.56,1.111,1.111,0,0,0-.647-0.23h-3.2a1.111,1.111,0,0,0-.647.23,1.27,1.27,0,0,0-.434.56l-0.319.9h-1.4a1.506,1.506,0,0,0-1.131.5,1.677,1.677,0,0,0-.469,1.19v5.93a1.677,1.677,0,0,0,.469,1.19,1.506,1.506,0,0,0,1.131.5h8.8a1.508,1.508,0,0,0,1.131-.5,1.676,1.676,0,0,0,.468-1.19v-5.93A1.672,1.672,0,0,0,671.531,2760.19Zm-3.553,6.25a2.684,2.684,0,0,1-3.956,0,3.081,3.081,0,0,1,0-4.19,2.684,2.684,0,0,1,3.956,0A3.081,3.081,0,0,1,667.978,2766.44Zm-1.978-4a1.7,1.7,0,0,0-1.272.56,1.977,1.977,0,0,0,0,2.69,1.725,1.725,0,0,0,2.544,0,1.977,1.977,0,0,0,0-2.69A1.7,1.7,0,0,0,666,2762.44Z" transform="translate(-660 -2758)"/>
</svg>
