<?xml version="1.0" encoding="utf-8"?>
<!-- Generator: Adobe Illustrator 19.1.0, SVG Export Plug-In . SVG Version: 6.00 Build 0)  -->
<svg version="1.1" id="Layer_1" xmlns="http://www.w3.org/2000/svg" xmlns:xlink="http://www.w3.org/1999/xlink" x="0px" y="0px"
	 viewBox="0 0 38.9 38.9" style="enable-background:new 0 0 38.9 38.9;" xml:space="preserve">
<style type="text/css">
	.st0{fill:#EA3B58;}
</style>
<g>
	<path class="st0" d="M25.7,16.2c-0.1-0.8-0.4-1.6-1-2.2c-0.7-0.6-1.5-0.9-2.3-1c-1.5-0.1-5.1-0.1-6.3,0.1c-1.4,0.2-2.4,1.1-2.8,2.5
		c-0.3,1.1-0.2,6.1-0.1,7.2c0.2,1.5,1.1,2.4,2.6,2.8c1,0.3,6,0.2,7.1,0c1.5-0.2,2.4-1.1,2.8-2.6C25.9,21.9,25.8,17.2,25.7,16.2z
		 M24.6,22.5c-0.2,1.1-0.9,1.8-2,1.9c-1,0.1-5.6,0.2-6.6-0.1c-0.9-0.3-1.4-0.9-1.6-1.8c-0.1-0.9-0.2-5.3,0-6.5
		c0.2-1.1,0.9-1.8,2-1.9c1.1-0.1,5.2-0.1,6.3,0c1.1,0.2,1.8,0.9,1.9,2C24.7,17.3,24.7,21.4,24.6,22.5z M19.5,16.1
		c-1.8,0-3.3,1.5-3.3,3.3c0,1.8,1.5,3.3,3.3,3.3c1.8,0,3.3-1.5,3.3-3.3C22.7,17.5,21.3,16.1,19.5,16.1z M19.4,21.5
		c-1.2,0-2.1-1-2.1-2.1c0-1.2,0.9-2.1,2.1-2.1c1.2,0,2.1,1,2.1,2.1C21.6,20.5,20.6,21.5,19.4,21.5z M23.6,15.9
		c0,0.4-0.3,0.8-0.8,0.8s-0.8-0.3-0.8-0.8c0-0.4,0.3-0.8,0.8-0.8C23.3,15.2,23.6,15.5,23.6,15.9z"/>
</g>
</svg>
